<svg xmlns="http://www.w3.org/2000/svg" viewBox="0 0 415.4 76.3" role="img" aria-label="Lyan Studio">
  <rect x="6.00" y="6.00" width="10.91" height="45.44" rx="1.82" fill="#ECEAE5"/><rect x="6.00" y="40.53" width="33.63" height="10.91" rx="1.82" fill="#ECEAE5"/><rect x="29.63" y="6.00" width="10.00" height="10.00" rx="1.82" fill="#5C87AE"/>
  <g transform="translate(61.39,51.44)"><path d="M5.5040000000000004 0.0V-45.44H12.416V-6.336H34.56V0.0Z M42.751999999999995 9.6V4.032H46.912Q48.64 4.032 49.471999999999994 3.52Q50.303999999999995 3.008 50.751999999999995 1.792L51.839999999999996 -1.024H49.727999999999994L37.44 -34.048H44.608L53.952 -7.296L62.848 -34.048H70.08L56.512 3.968Q55.488 6.912 53.471999999999994 8.256Q51.455999999999996 9.6 47.872 9.6Z M84.48 0.768Q79.168 0.768 76.0 -1.6640000000000001Q72.83200000000001 -4.096 72.83200000000001 -8.512Q72.83200000000001 -12.864 75.488 -15.360000000000001Q78.144 -17.856 83.712 -18.944L95.424 -21.184Q95.424 -29.056 88.06400000000001 -29.056Q84.80000000000001 -29.056 82.94400000000002 -27.584000000000003Q81.08800000000001 -26.112000000000002 80.384 -23.36L73.408 -23.808Q74.36800000000001 -28.928 78.17600000000002 -31.872Q81.98400000000001 -34.816 88.06400000000001 -34.816Q94.976 -34.816 98.592 -31.136000000000003Q102.208 -27.456 102.208 -20.8V-7.5520000000000005Q102.208 -6.336 102.624 -5.856Q103.04 -5.376 104.0 -5.376H105.21600000000001V0.0Q104.32000000000001 0.192 102.72 0.192Q99.84 0.192 98.144 -0.9920000000000001Q96.44800000000001 -2.176 96.0 -5.056V-5.248Q94.72 -2.56 91.584 -0.896Q88.44800000000001 0.768 84.48 0.768ZM85.56800000000001 -4.6080000000000005Q90.176 -4.6080000000000005 92.80000000000001 -7.232Q95.424 -9.856 95.424 -13.888V-16.064L85.44000000000001 -14.144Q82.36800000000001 -13.568 81.12 -12.32Q79.872 -11.072000000000001 79.872 -9.152000000000001Q79.872 -6.976 81.376 -5.792Q82.88000000000001 -4.6080000000000005 85.56800000000001 -4.6080000000000005Z M109.824 0.0V-34.048H116.032L116.16 -28.096Q117.504 -31.616 120.256 -33.216Q123.00800000000001 -34.816 126.528 -34.816Q130.304 -34.816 132.864 -33.120000000000005Q135.424 -31.424 136.736 -28.512Q138.048 -25.6 138.048 -21.888V0.0H131.264V-19.84Q131.264 -24.32 129.76 -26.72Q128.256 -29.12 124.672 -29.12Q121.024 -29.12 118.816 -26.72Q116.608 -24.32 116.608 -19.84V0.0Z M177.72799999999998 1.024Q172.28799999999998 1.024 168.28799999999998 -0.96Q164.28799999999998 -2.944 161.98399999999998 -6.464Q159.67999999999998 -9.984 159.29599999999996 -14.656L166.39999999999998 -15.104000000000001Q167.03999999999996 -10.368 169.88799999999998 -7.808Q172.736 -5.248 177.85599999999997 -5.248Q182.272 -5.248 184.70399999999998 -6.912000000000001Q187.13599999999997 -8.576 187.13599999999997 -11.776Q187.13599999999997 -13.696 186.20799999999997 -15.2Q185.27999999999997 -16.704 182.688 -17.951999999999998Q180.09599999999998 -19.2 175.10399999999998 -20.416Q169.664 -21.696 166.39999999999998 -23.328000000000003Q163.13599999999997 -24.96 161.69599999999997 -27.36Q160.25599999999997 -29.76 160.25599999999997 -33.28Q160.25599999999997 -37.184 162.14399999999998 -40.16Q164.03199999999998 -43.136 167.55199999999996 -44.8Q171.07199999999997 -46.464 175.99999999999997 -46.464Q181.18399999999997 -46.464 184.89599999999996 -44.544Q188.60799999999998 -42.624 190.71999999999997 -39.29600000000001Q192.83199999999997 -35.968 193.34399999999997 -31.68L186.23999999999998 -31.296Q185.72799999999998 -35.2 183.13599999999997 -37.696Q180.54399999999998 -40.192 175.87199999999999 -40.192Q171.90399999999997 -40.192 169.63199999999998 -38.368Q167.35999999999999 -36.544000000000004 167.35999999999999 -33.536Q167.35999999999999 -31.552 168.28799999999998 -30.272Q169.21599999999998 -28.992 171.61599999999999 -28.0Q174.01599999999996 -27.008 178.43199999999996 -25.984Q184.31999999999996 -24.64 187.77599999999995 -22.688000000000002Q191.23199999999997 -20.736 192.736 -18.112000000000002Q194.23999999999998 -15.488 194.23999999999998 -12.16Q194.23999999999998 -8.128 192.15999999999997 -5.152Q190.07999999999998 -2.176 186.368 -0.5760000000000001Q182.65599999999998 1.024 177.72799999999998 1.024Z M214.27199999999996 0.0Q209.40799999999996 0.0 207.10399999999996 -2.208Q204.79999999999995 -4.416 204.79999999999995 -9.216000000000001V-28.48H199.61599999999996V-34.048H204.79999999999995V-42.048H211.58399999999997V-34.048H220.60799999999998V-28.48H211.58399999999997V-9.728Q211.58399999999997 -7.36 212.60799999999998 -6.464Q213.63199999999998 -5.5680000000000005 215.74399999999997 -5.5680000000000005H220.60799999999998V0.0Z M237.37599999999998 0.768Q232.19199999999998 0.768 229.18399999999997 -2.624Q226.176 -6.016 226.176 -12.16V-34.048H232.95999999999998V-13.888Q232.95999999999998 -9.28 234.55999999999997 -7.103999999999999Q236.15999999999997 -4.928 239.42399999999998 -4.928Q243.13599999999997 -4.928 245.21599999999998 -7.327999999999999Q247.296 -9.728 247.296 -14.08V-34.048H254.07999999999998V0.0H247.74399999999997L247.67999999999998 -5.5680000000000005Q244.92799999999997 0.768 237.37599999999998 0.768Z M274.496 0.768Q270.14399999999995 0.768 266.94399999999996 -1.408Q263.74399999999997 -3.584 262.01599999999996 -7.584Q260.28799999999995 -11.584 260.28799999999995 -17.024Q260.28799999999995 -22.464000000000002 262.01599999999996 -26.464000000000002Q263.74399999999997 -30.464000000000002 266.94399999999996 -32.64Q270.14399999999995 -34.816 274.496 -34.816Q278.01599999999996 -34.816 280.768 -33.344Q283.52 -31.872 284.92799999999994 -29.248V-45.44H291.712V0.0H285.376L285.18399999999997 -5.12Q283.77599999999995 -2.3040000000000003 280.928 -0.7680000000000001Q278.08 0.768 274.496 0.768ZM276.28799999999995 -5.12Q280.448 -5.12 282.688 -8.256Q284.92799999999994 -11.392 284.92799999999994 -17.024Q284.92799999999994 -22.72 282.688 -25.823999999999998Q280.448 -28.928 276.28799999999995 -28.928Q272.19199999999995 -28.928 269.76 -25.759999999999998Q267.328 -22.592 267.328 -17.024Q267.328 -11.584 269.76 -8.352Q272.19199999999995 -5.12 276.28799999999995 -5.12Z M300.032 0.0V-34.048H306.816V0.0ZM299.90399999999994 -38.976V-45.76H306.94399999999996V-38.976Z M329.15199999999993 0.768Q324.28799999999995 0.768 320.64 -1.44Q316.99199999999996 -3.648 315.0079999999999 -7.616Q313.02399999999994 -11.584 313.02399999999994 -17.024Q313.02399999999994 -22.464000000000002 315.0079999999999 -26.432000000000002Q316.99199999999996 -30.400000000000002 320.64 -32.608000000000004Q324.28799999999995 -34.816 329.15199999999993 -34.816Q334.01599999999996 -34.816 337.664 -32.608000000000004Q341.31199999999995 -30.400000000000002 343.29599999999994 -26.432000000000002Q345.28 -22.464000000000002 345.28 -17.024Q345.28 -11.584 343.29599999999994 -7.616Q341.31199999999995 -3.648 337.664 -1.44Q334.01599999999996 0.768 329.15199999999993 0.768ZM329.15199999999993 -5.12Q333.50399999999996 -5.12 335.87199999999996 -8.256Q338.23999999999995 -11.392 338.23999999999995 -17.024Q338.23999999999995 -22.592 335.87199999999996 -25.759999999999998Q333.50399999999996 -28.928 329.15199999999993 -28.928Q324.864 -28.928 322.46399999999994 -25.759999999999998Q320.06399999999996 -22.592 320.06399999999996 -17.024Q320.06399999999996 -11.392 322.46399999999994 -8.256Q324.864 -5.12 329.15199999999993 -5.12Z" fill="#ECEAE5"/></g>
</svg>
